<?xml version="1.0" encoding="utf-8"?>
<!-- Generator: Adobe Illustrator 24.0.2, SVG Export Plug-In . SVG Version: 6.00 Build 0)  -->
<svg version="1.1" id="Ebene_1" xmlns="http://www.w3.org/2000/svg" xmlns:xlink="http://www.w3.org/1999/xlink" x="0px" y="0px"
	 viewBox="0 0 174 147" style="enable-background:new 0 0 174 147;" xml:space="preserve">
<style type="text/css">
	.st0{fill:#E32933;}
	.st1{fill:#6DC5D7;}
	.st2{fill:#313886;}
</style>
<g>
	<path class="st0" d="M91.62,78.2c-5.32-5.42-12.79-8.73-22.42-9.93l25.36-25.38V20.41H18.33v24.68h43.34L38.8,68.27v17.46h9.03
		c1.33,0,2.58,0.03,3.79,0.08c6.5,0.28,11.29,1.3,14.42,3.08c3.71,2.11,5.57,5.37,5.57,9.78c0,4.01-1.45,7.17-4.36,9.48
		c-2.91,2.31-7.27,3.46-13.09,3.46c-7.45,0-14.62-2.26-21.57-6.75l-17.73,17.71c10.89,9.36,24.38,14.02,40.51,14.02
		c13.84,0,24.68-3.31,32.51-9.93c7.83-6.62,11.74-15.55,11.74-26.79C99.6,90.84,96.94,83.62,91.62,78.2z"/>
</g>
<g>
	<g>
		<path class="st1" d="M81.67,130.95c-8.8-3.75-15.72-8.87-20.76-15.36l14.27-16.65c4.33,4.76,9.66,8.47,16,11.14
			c6.34,2.67,13.05,4,20.11,4c6.2,0,10.99-1.04,14.38-3.14c3.39-2.09,5.08-4.94,5.08-8.54c0-2.88-1.19-5.3-3.57-7.24
			c-2.38-1.95-6.31-3.57-11.79-4.87l-17.95-4.11c-11.25-2.59-19.5-6.49-24.76-11.68c-5.27-5.19-7.89-11.68-7.89-19.47
			c0-10.38,4.07-18.74,12.22-25.09c8.14-6.34,19.21-9.52,33.2-9.52c9.66,0,18.42,1.55,26.28,4.65c7.86,3.1,14.17,7.39,18.92,12.87
			l-14.06,17.09c-9.37-8.07-19.97-12.11-31.79-12.11c-6.06,0-10.63,1.01-13.73,3.03c-3.1,2.02-4.65,4.76-4.65,8.22
			c0,2.74,1.15,4.94,3.46,6.6c2.3,1.66,6.27,3.14,11.89,4.43l19.03,4.54c11.25,2.45,19.32,6.24,24.22,11.36
			c4.9,5.12,7.35,11.64,7.35,19.57c0,11.1-4.08,19.86-12.22,26.28c-8.15,6.42-19.43,9.62-33.85,9.62
			C100.27,136.57,90.46,134.7,81.67,130.95z"/>
	</g>
</g>
<path class="st2" d="M91.19,110.08c-6.35-2.67-11.68-6.38-16-11.14l-5.41,6.31c-0.6,0.95-1.32,1.83-2.23,2.6l-6.64,7.75
	c5.03,6.47,11.92,11.57,20.68,15.31c2.27-1.22,4.37-2.63,6.28-4.25c4.69-3.97,7.94-8.78,9.82-14.41
	C95.48,111.66,93.31,110.97,91.19,110.08z"/>
<path class="st2" d="M64.8,55.03c0,7.78,2.63,14.27,7.89,19.47c5.17,5.1,13.25,8.94,24.21,11.54c-1.3-2.93-3.04-5.55-5.28-7.84
	c-5.32-5.42-12.79-8.73-22.42-9.93l25.36-25.38V22.05c-6.86,1.53-12.72,4.15-17.54,7.9C68.87,36.29,64.8,44.65,64.8,55.03z"/>
</svg>
